<mxfile host="app.diagrams.net" modified="2023-09-10T12:08:07.644Z" agent="Mozilla/5.0 (Windows NT 10.0; Win64; x64) AppleWebKit/537.36 (KHTML, like Gecko) Chrome/104.0.0.0 Safari/537.36" etag="g6rkkzs2LcUCF-oO2W_7" version="21.7.4" type="device">
  <diagram id="8ztOecQNgquD8MF6msak" name="Page-1">
    <mxGraphModel dx="2625" dy="1433" grid="1" gridSize="10" guides="1" tooltips="1" connect="1" arrows="1" fold="1" page="1" pageScale="1" pageWidth="850" pageHeight="1100" math="0" shadow="0">
      <root>
        <mxCell id="0" />
        <mxCell id="1" parent="0" />
        <mxCell id="2" value="Controller" style="swimlane;fontStyle=2;align=center;verticalAlign=top;childLayout=stackLayout;horizontal=1;startSize=26;horizontalStack=0;resizeParent=1;resizeLast=0;collapsible=1;marginBottom=0;rounded=0;shadow=0;strokeWidth=1;" parent="1" vertex="1">
          <mxGeometry x="530" y="561" width="160" height="158" as="geometry">
            <mxRectangle x="220" y="120" width="160" height="26" as="alternateBounds" />
          </mxGeometry>
        </mxCell>
        <mxCell id="5" value="*ShelterService" style="text;align=left;verticalAlign=top;spacingLeft=4;spacingRight=4;overflow=hidden;rotatable=0;points=[[0,0.5],[1,0.5]];portConstraint=eastwest;rounded=0;shadow=0;html=0;" parent="2" vertex="1">
          <mxGeometry y="26" width="160" height="26" as="geometry" />
        </mxCell>
        <mxCell id="6" value="*CuratorService" style="text;align=left;verticalAlign=top;spacingLeft=4;spacingRight=4;overflow=hidden;rotatable=0;points=[[0,0.5],[1,0.5]];portConstraint=eastwest;rounded=0;shadow=0;html=0;" parent="2" vertex="1">
          <mxGeometry y="52" width="160" height="26" as="geometry" />
        </mxCell>
        <mxCell id="7" value="*AnimalService" style="text;align=left;verticalAlign=top;spacingLeft=4;spacingRight=4;overflow=hidden;rotatable=0;points=[[0,0.5],[1,0.5]];portConstraint=eastwest;rounded=0;shadow=0;html=0;" parent="2" vertex="1">
          <mxGeometry y="78" width="160" height="26" as="geometry" />
        </mxCell>
        <mxCell id="W4vAiNo6CAo6J-bxIwZZ-68" value="*PurchaseService" style="text;align=left;verticalAlign=top;spacingLeft=4;spacingRight=4;overflow=hidden;rotatable=0;points=[[0,0.5],[1,0.5]];portConstraint=eastwest;rounded=0;shadow=0;html=0;" parent="2" vertex="1">
          <mxGeometry y="104" width="160" height="27" as="geometry" />
        </mxCell>
        <mxCell id="BNFZ0rqhJsxP_BBbkfFe-88" value="*DiseaseService" style="text;align=left;verticalAlign=top;spacingLeft=4;spacingRight=4;overflow=hidden;rotatable=0;points=[[0,0.5],[1,0.5]];portConstraint=eastwest;rounded=0;shadow=0;html=0;" vertex="1" parent="2">
          <mxGeometry y="131" width="160" height="27" as="geometry" />
        </mxCell>
        <mxCell id="37" value="ShelterService" style="swimlane;fontStyle=2;align=center;verticalAlign=top;childLayout=stackLayout;horizontal=1;startSize=26;horizontalStack=0;resizeParent=1;resizeLast=0;collapsible=1;marginBottom=0;rounded=0;shadow=0;strokeWidth=1;" parent="1" vertex="1">
          <mxGeometry x="225" y="949.5" width="160" height="161" as="geometry">
            <mxRectangle x="220" y="120" width="160" height="26" as="alternateBounds" />
          </mxGeometry>
        </mxCell>
        <mxCell id="41" value="+ GetById()" style="text;align=left;verticalAlign=top;spacingLeft=4;spacingRight=4;overflow=hidden;rotatable=0;points=[[0,0.5],[1,0.5]];portConstraint=eastwest;rounded=0;shadow=0;html=0;" parent="37" vertex="1">
          <mxGeometry y="26" width="160" height="27" as="geometry" />
        </mxCell>
        <mxCell id="40" value="+ Create ()" style="text;align=left;verticalAlign=top;spacingLeft=4;spacingRight=4;overflow=hidden;rotatable=0;points=[[0,0.5],[1,0.5]];portConstraint=eastwest;rounded=0;shadow=0;html=0;" parent="37" vertex="1">
          <mxGeometry y="53" width="160" height="27" as="geometry" />
        </mxCell>
        <mxCell id="39" value="+ Delete ()" style="text;align=left;verticalAlign=top;spacingLeft=4;spacingRight=4;overflow=hidden;rotatable=0;points=[[0,0.5],[1,0.5]];portConstraint=eastwest;rounded=0;shadow=0;html=0;" parent="37" vertex="1">
          <mxGeometry y="80" width="160" height="27" as="geometry" />
        </mxCell>
        <mxCell id="W4vAiNo6CAo6J-bxIwZZ-67" value="+ GetAll ()" style="text;align=left;verticalAlign=top;spacingLeft=4;spacingRight=4;overflow=hidden;rotatable=0;points=[[0,0.5],[1,0.5]];portConstraint=eastwest;rounded=0;shadow=0;html=0;" parent="37" vertex="1">
          <mxGeometry y="107" width="160" height="27" as="geometry" />
        </mxCell>
        <mxCell id="8VdLmAS2cf7esQPfnooG-76" value="+ Update()" style="text;align=left;verticalAlign=top;spacingLeft=4;spacingRight=4;overflow=hidden;rotatable=0;points=[[0,0.5],[1,0.5]];portConstraint=eastwest;rounded=0;shadow=0;html=0;" parent="37" vertex="1">
          <mxGeometry y="134" width="160" height="27" as="geometry" />
        </mxCell>
        <mxCell id="48" value="CuratorService" style="swimlane;fontStyle=2;align=center;verticalAlign=top;childLayout=stackLayout;horizontal=1;startSize=26;horizontalStack=0;resizeParent=1;resizeLast=0;collapsible=1;marginBottom=0;rounded=0;shadow=0;strokeWidth=1;" parent="1" vertex="1">
          <mxGeometry x="440" y="949.5" width="160" height="190" as="geometry">
            <mxRectangle x="220" y="120" width="160" height="26" as="alternateBounds" />
          </mxGeometry>
        </mxCell>
        <mxCell id="51" value="+ GetById()" style="text;align=left;verticalAlign=top;spacingLeft=4;spacingRight=4;overflow=hidden;rotatable=0;points=[[0,0.5],[1,0.5]];portConstraint=eastwest;rounded=0;shadow=0;html=0;" parent="48" vertex="1">
          <mxGeometry y="26" width="160" height="27" as="geometry" />
        </mxCell>
        <mxCell id="50" value="+ Create ()" style="text;align=left;verticalAlign=top;spacingLeft=4;spacingRight=4;overflow=hidden;rotatable=0;points=[[0,0.5],[1,0.5]];portConstraint=eastwest;rounded=0;shadow=0;html=0;" parent="48" vertex="1">
          <mxGeometry y="53" width="160" height="27" as="geometry" />
        </mxCell>
        <mxCell id="49" value="+ Delete ()" style="text;align=left;verticalAlign=top;spacingLeft=4;spacingRight=4;overflow=hidden;rotatable=0;points=[[0,0.5],[1,0.5]];portConstraint=eastwest;rounded=0;shadow=0;html=0;" parent="48" vertex="1">
          <mxGeometry y="80" width="160" height="27" as="geometry" />
        </mxCell>
        <mxCell id="8VdLmAS2cf7esQPfnooG-71" value="+ GetByChatId()" style="text;align=left;verticalAlign=top;spacingLeft=4;spacingRight=4;overflow=hidden;rotatable=0;points=[[0,0.5],[1,0.5]];portConstraint=eastwest;rounded=0;shadow=0;html=0;" parent="48" vertex="1">
          <mxGeometry y="107" width="160" height="27" as="geometry" />
        </mxCell>
        <mxCell id="8VdLmAS2cf7esQPfnooG-72" value="+ Update()" style="text;align=left;verticalAlign=top;spacingLeft=4;spacingRight=4;overflow=hidden;rotatable=0;points=[[0,0.5],[1,0.5]];portConstraint=eastwest;rounded=0;shadow=0;html=0;" parent="48" vertex="1">
          <mxGeometry y="134" width="160" height="27" as="geometry" />
        </mxCell>
        <mxCell id="8VdLmAS2cf7esQPfnooG-74" value="+ GetAll()" style="text;align=left;verticalAlign=top;spacingLeft=4;spacingRight=4;overflow=hidden;rotatable=0;points=[[0,0.5],[1,0.5]];portConstraint=eastwest;rounded=0;shadow=0;html=0;" parent="48" vertex="1">
          <mxGeometry y="161" width="160" height="27" as="geometry" />
        </mxCell>
        <mxCell id="59" value="AnimalService" style="swimlane;fontStyle=2;align=center;verticalAlign=top;childLayout=stackLayout;horizontal=1;startSize=26;horizontalStack=0;resizeParent=1;resizeLast=0;collapsible=1;marginBottom=0;rounded=0;shadow=0;strokeWidth=1;" parent="1" vertex="1">
          <mxGeometry x="680" y="951.5" width="160" height="188" as="geometry">
            <mxRectangle x="220" y="120" width="160" height="26" as="alternateBounds" />
          </mxGeometry>
        </mxCell>
        <mxCell id="60" value="+ GetById()" style="text;align=left;verticalAlign=top;spacingLeft=4;spacingRight=4;overflow=hidden;rotatable=0;points=[[0,0.5],[1,0.5]];portConstraint=eastwest;rounded=0;shadow=0;html=0;" parent="59" vertex="1">
          <mxGeometry y="26" width="160" height="27" as="geometry" />
        </mxCell>
        <mxCell id="63" value="+ GetAll ()" style="text;align=left;verticalAlign=top;spacingLeft=4;spacingRight=4;overflow=hidden;rotatable=0;points=[[0,0.5],[1,0.5]];portConstraint=eastwest;rounded=0;shadow=0;html=0;" parent="59" vertex="1">
          <mxGeometry y="53" width="160" height="27" as="geometry" />
        </mxCell>
        <mxCell id="62" value="+ Create ()" style="text;align=left;verticalAlign=top;spacingLeft=4;spacingRight=4;overflow=hidden;rotatable=0;points=[[0,0.5],[1,0.5]];portConstraint=eastwest;rounded=0;shadow=0;html=0;" parent="59" vertex="1">
          <mxGeometry y="80" width="160" height="27" as="geometry" />
        </mxCell>
        <mxCell id="61" value="+ Delete ()" style="text;align=left;verticalAlign=top;spacingLeft=4;spacingRight=4;overflow=hidden;rotatable=0;points=[[0,0.5],[1,0.5]];portConstraint=eastwest;rounded=0;shadow=0;html=0;" parent="59" vertex="1">
          <mxGeometry y="107" width="160" height="27" as="geometry" />
        </mxCell>
        <mxCell id="K121ZE3DpCj5yhwBkeHB-66" value="+ GetCrtrAll ()" style="text;align=left;verticalAlign=top;spacingLeft=4;spacingRight=4;overflow=hidden;rotatable=0;points=[[0,0.5],[1,0.5]];portConstraint=eastwest;rounded=0;shadow=0;html=0;" parent="59" vertex="1">
          <mxGeometry y="134" width="160" height="27" as="geometry" />
        </mxCell>
        <mxCell id="8VdLmAS2cf7esQPfnooG-66" value="+ Update()" style="text;align=left;verticalAlign=top;spacingLeft=4;spacingRight=4;overflow=hidden;rotatable=0;points=[[0,0.5],[1,0.5]];portConstraint=eastwest;rounded=0;shadow=0;html=0;" parent="59" vertex="1">
          <mxGeometry y="161" width="160" height="27" as="geometry" />
        </mxCell>
        <mxCell id="W4vAiNo6CAo6J-bxIwZZ-77" value="PurchaseService" style="swimlane;fontStyle=2;align=center;verticalAlign=top;childLayout=stackLayout;horizontal=1;startSize=26;horizontalStack=0;resizeParent=1;resizeLast=0;collapsible=1;marginBottom=0;rounded=0;shadow=0;strokeWidth=1;" parent="1" vertex="1">
          <mxGeometry x="890" y="951.5" width="160" height="161" as="geometry">
            <mxRectangle x="220" y="120" width="160" height="26" as="alternateBounds" />
          </mxGeometry>
        </mxCell>
        <mxCell id="W4vAiNo6CAo6J-bxIwZZ-78" value="+ GetById()" style="text;align=left;verticalAlign=top;spacingLeft=4;spacingRight=4;overflow=hidden;rotatable=0;points=[[0,0.5],[1,0.5]];portConstraint=eastwest;rounded=0;shadow=0;html=0;" parent="W4vAiNo6CAo6J-bxIwZZ-77" vertex="1">
          <mxGeometry y="26" width="160" height="27" as="geometry" />
        </mxCell>
        <mxCell id="W4vAiNo6CAo6J-bxIwZZ-79" value="+ GetAll ()" style="text;align=left;verticalAlign=top;spacingLeft=4;spacingRight=4;overflow=hidden;rotatable=0;points=[[0,0.5],[1,0.5]];portConstraint=eastwest;rounded=0;shadow=0;html=0;" parent="W4vAiNo6CAo6J-bxIwZZ-77" vertex="1">
          <mxGeometry y="53" width="160" height="27" as="geometry" />
        </mxCell>
        <mxCell id="W4vAiNo6CAo6J-bxIwZZ-80" value="+ Create ()" style="text;align=left;verticalAlign=top;spacingLeft=4;spacingRight=4;overflow=hidden;rotatable=0;points=[[0,0.5],[1,0.5]];portConstraint=eastwest;rounded=0;shadow=0;html=0;" parent="W4vAiNo6CAo6J-bxIwZZ-77" vertex="1">
          <mxGeometry y="80" width="160" height="27" as="geometry" />
        </mxCell>
        <mxCell id="W4vAiNo6CAo6J-bxIwZZ-81" value="+ Delete ()" style="text;align=left;verticalAlign=top;spacingLeft=4;spacingRight=4;overflow=hidden;rotatable=0;points=[[0,0.5],[1,0.5]];portConstraint=eastwest;rounded=0;shadow=0;html=0;" parent="W4vAiNo6CAo6J-bxIwZZ-77" vertex="1">
          <mxGeometry y="107" width="160" height="27" as="geometry" />
        </mxCell>
        <mxCell id="8VdLmAS2cf7esQPfnooG-68" value="+ Update()" style="text;align=left;verticalAlign=top;spacingLeft=4;spacingRight=4;overflow=hidden;rotatable=0;points=[[0,0.5],[1,0.5]];portConstraint=eastwest;rounded=0;shadow=0;html=0;" parent="W4vAiNo6CAo6J-bxIwZZ-77" vertex="1">
          <mxGeometry y="134" width="160" height="27" as="geometry" />
        </mxCell>
        <mxCell id="g820REes-5MASwQJyq1x-65" value="IPurchaseRepo" style="swimlane;fontStyle=2;align=center;verticalAlign=top;childLayout=stackLayout;horizontal=1;startSize=26;horizontalStack=0;resizeParent=1;resizeLast=0;collapsible=1;marginBottom=0;rounded=0;shadow=0;strokeWidth=1;" parent="1" vertex="1">
          <mxGeometry x="900" y="1228" width="160" height="161" as="geometry">
            <mxRectangle x="220" y="120" width="160" height="26" as="alternateBounds" />
          </mxGeometry>
        </mxCell>
        <mxCell id="g820REes-5MASwQJyq1x-66" value="+ GetById ()" style="text;align=left;verticalAlign=top;spacingLeft=4;spacingRight=4;overflow=hidden;rotatable=0;points=[[0,0.5],[1,0.5]];portConstraint=eastwest;rounded=0;shadow=0;html=0;" parent="g820REes-5MASwQJyq1x-65" vertex="1">
          <mxGeometry y="26" width="160" height="27" as="geometry" />
        </mxCell>
        <mxCell id="g820REes-5MASwQJyq1x-67" value="+ Create ()" style="text;align=left;verticalAlign=top;spacingLeft=4;spacingRight=4;overflow=hidden;rotatable=0;points=[[0,0.5],[1,0.5]];portConstraint=eastwest;rounded=0;shadow=0;html=0;" parent="g820REes-5MASwQJyq1x-65" vertex="1">
          <mxGeometry y="53" width="160" height="27" as="geometry" />
        </mxCell>
        <mxCell id="g820REes-5MASwQJyq1x-68" value="+ Update ()" style="text;align=left;verticalAlign=top;spacingLeft=4;spacingRight=4;overflow=hidden;rotatable=0;points=[[0,0.5],[1,0.5]];portConstraint=eastwest;rounded=0;shadow=0;html=0;" parent="g820REes-5MASwQJyq1x-65" vertex="1">
          <mxGeometry y="80" width="160" height="27" as="geometry" />
        </mxCell>
        <mxCell id="g820REes-5MASwQJyq1x-69" value="+ Delete ()" style="text;align=left;verticalAlign=top;spacingLeft=4;spacingRight=4;overflow=hidden;rotatable=0;points=[[0,0.5],[1,0.5]];portConstraint=eastwest;rounded=0;shadow=0;html=0;" parent="g820REes-5MASwQJyq1x-65" vertex="1">
          <mxGeometry y="107" width="160" height="27" as="geometry" />
        </mxCell>
        <mxCell id="g820REes-5MASwQJyq1x-70" value="+ GetAll ()" style="text;align=left;verticalAlign=top;spacingLeft=4;spacingRight=4;overflow=hidden;rotatable=0;points=[[0,0.5],[1,0.5]];portConstraint=eastwest;rounded=0;shadow=0;html=0;" parent="g820REes-5MASwQJyq1x-65" vertex="1">
          <mxGeometry y="134" width="160" height="27" as="geometry" />
        </mxCell>
        <mxCell id="g820REes-5MASwQJyq1x-71" value="PurchaseRepo" style="swimlane;fontStyle=2;align=center;verticalAlign=top;childLayout=stackLayout;horizontal=1;startSize=26;horizontalStack=0;resizeParent=1;resizeLast=0;collapsible=1;marginBottom=0;rounded=0;shadow=0;strokeWidth=1;" parent="1" vertex="1">
          <mxGeometry x="900" y="1590" width="160" height="161" as="geometry">
            <mxRectangle x="220" y="120" width="160" height="26" as="alternateBounds" />
          </mxGeometry>
        </mxCell>
        <mxCell id="g820REes-5MASwQJyq1x-72" value="+ GetById ()" style="text;align=left;verticalAlign=top;spacingLeft=4;spacingRight=4;overflow=hidden;rotatable=0;points=[[0,0.5],[1,0.5]];portConstraint=eastwest;rounded=0;shadow=0;html=0;" parent="g820REes-5MASwQJyq1x-71" vertex="1">
          <mxGeometry y="26" width="160" height="27" as="geometry" />
        </mxCell>
        <mxCell id="g820REes-5MASwQJyq1x-73" value="+ Create ()" style="text;align=left;verticalAlign=top;spacingLeft=4;spacingRight=4;overflow=hidden;rotatable=0;points=[[0,0.5],[1,0.5]];portConstraint=eastwest;rounded=0;shadow=0;html=0;" parent="g820REes-5MASwQJyq1x-71" vertex="1">
          <mxGeometry y="53" width="160" height="27" as="geometry" />
        </mxCell>
        <mxCell id="g820REes-5MASwQJyq1x-74" value="+ Update ()" style="text;align=left;verticalAlign=top;spacingLeft=4;spacingRight=4;overflow=hidden;rotatable=0;points=[[0,0.5],[1,0.5]];portConstraint=eastwest;rounded=0;shadow=0;html=0;" parent="g820REes-5MASwQJyq1x-71" vertex="1">
          <mxGeometry y="80" width="160" height="27" as="geometry" />
        </mxCell>
        <mxCell id="g820REes-5MASwQJyq1x-75" value="+ Delete ()" style="text;align=left;verticalAlign=top;spacingLeft=4;spacingRight=4;overflow=hidden;rotatable=0;points=[[0,0.5],[1,0.5]];portConstraint=eastwest;rounded=0;shadow=0;html=0;" parent="g820REes-5MASwQJyq1x-71" vertex="1">
          <mxGeometry y="107" width="160" height="27" as="geometry" />
        </mxCell>
        <mxCell id="g820REes-5MASwQJyq1x-76" value="+ GetAll ()" style="text;align=left;verticalAlign=top;spacingLeft=4;spacingRight=4;overflow=hidden;rotatable=0;points=[[0,0.5],[1,0.5]];portConstraint=eastwest;rounded=0;shadow=0;html=0;" parent="g820REes-5MASwQJyq1x-71" vertex="1">
          <mxGeometry y="134" width="160" height="27" as="geometry" />
        </mxCell>
        <mxCell id="g820REes-5MASwQJyq1x-77" value="" style="endArrow=block;dashed=1;endFill=0;endSize=12;html=1;entryX=0.5;entryY=1;entryDx=0;entryDy=0;exitX=0.5;exitY=0;exitDx=0;exitDy=0;" parent="1" source="g820REes-5MASwQJyq1x-71" target="g820REes-5MASwQJyq1x-65" edge="1">
          <mxGeometry width="160" relative="1" as="geometry">
            <mxPoint x="1090" y="1590" as="sourcePoint" />
            <mxPoint x="1250" y="1590" as="targetPoint" />
          </mxGeometry>
        </mxCell>
        <mxCell id="g820REes-5MASwQJyq1x-78" value="ICuratorRepo" style="swimlane;fontStyle=2;align=center;verticalAlign=top;childLayout=stackLayout;horizontal=1;startSize=26;horizontalStack=0;resizeParent=1;resizeLast=0;collapsible=1;marginBottom=0;rounded=0;shadow=0;strokeWidth=1;" parent="1" vertex="1">
          <mxGeometry x="450" y="1228" width="160" height="190" as="geometry">
            <mxRectangle x="220" y="120" width="160" height="26" as="alternateBounds" />
          </mxGeometry>
        </mxCell>
        <mxCell id="g820REes-5MASwQJyq1x-79" value="+ GetById ()" style="text;align=left;verticalAlign=top;spacingLeft=4;spacingRight=4;overflow=hidden;rotatable=0;points=[[0,0.5],[1,0.5]];portConstraint=eastwest;rounded=0;shadow=0;html=0;" parent="g820REes-5MASwQJyq1x-78" vertex="1">
          <mxGeometry y="26" width="160" height="27" as="geometry" />
        </mxCell>
        <mxCell id="g820REes-5MASwQJyq1x-80" value="+ Create ()" style="text;align=left;verticalAlign=top;spacingLeft=4;spacingRight=4;overflow=hidden;rotatable=0;points=[[0,0.5],[1,0.5]];portConstraint=eastwest;rounded=0;shadow=0;html=0;" parent="g820REes-5MASwQJyq1x-78" vertex="1">
          <mxGeometry y="53" width="160" height="27" as="geometry" />
        </mxCell>
        <mxCell id="g820REes-5MASwQJyq1x-81" value="+ Update ()" style="text;align=left;verticalAlign=top;spacingLeft=4;spacingRight=4;overflow=hidden;rotatable=0;points=[[0,0.5],[1,0.5]];portConstraint=eastwest;rounded=0;shadow=0;html=0;" parent="g820REes-5MASwQJyq1x-78" vertex="1">
          <mxGeometry y="80" width="160" height="27" as="geometry" />
        </mxCell>
        <mxCell id="g820REes-5MASwQJyq1x-82" value="+ Delete ()" style="text;align=left;verticalAlign=top;spacingLeft=4;spacingRight=4;overflow=hidden;rotatable=0;points=[[0,0.5],[1,0.5]];portConstraint=eastwest;rounded=0;shadow=0;html=0;" parent="g820REes-5MASwQJyq1x-78" vertex="1">
          <mxGeometry y="107" width="160" height="27" as="geometry" />
        </mxCell>
        <mxCell id="g820REes-5MASwQJyq1x-83" value="+ GetAll ()" style="text;align=left;verticalAlign=top;spacingLeft=4;spacingRight=4;overflow=hidden;rotatable=0;points=[[0,0.5],[1,0.5]];portConstraint=eastwest;rounded=0;shadow=0;html=0;" parent="g820REes-5MASwQJyq1x-78" vertex="1">
          <mxGeometry y="134" width="160" height="27" as="geometry" />
        </mxCell>
        <mxCell id="g820REes-5MASwQJyq1x-84" value="+ GetByChatId()" style="text;align=left;verticalAlign=top;spacingLeft=4;spacingRight=4;overflow=hidden;rotatable=0;points=[[0,0.5],[1,0.5]];portConstraint=eastwest;rounded=0;shadow=0;html=0;" parent="g820REes-5MASwQJyq1x-78" vertex="1">
          <mxGeometry y="161" width="160" height="27" as="geometry" />
        </mxCell>
        <mxCell id="g820REes-5MASwQJyq1x-87" value="CuratorRepo" style="swimlane;fontStyle=2;align=center;verticalAlign=top;childLayout=stackLayout;horizontal=1;startSize=26;horizontalStack=0;resizeParent=1;resizeLast=0;collapsible=1;marginBottom=0;rounded=0;shadow=0;strokeWidth=1;" parent="1" vertex="1">
          <mxGeometry x="450" y="1588" width="160" height="190" as="geometry">
            <mxRectangle x="220" y="120" width="160" height="26" as="alternateBounds" />
          </mxGeometry>
        </mxCell>
        <mxCell id="g820REes-5MASwQJyq1x-88" value="+ GetById ()" style="text;align=left;verticalAlign=top;spacingLeft=4;spacingRight=4;overflow=hidden;rotatable=0;points=[[0,0.5],[1,0.5]];portConstraint=eastwest;rounded=0;shadow=0;html=0;" parent="g820REes-5MASwQJyq1x-87" vertex="1">
          <mxGeometry y="26" width="160" height="27" as="geometry" />
        </mxCell>
        <mxCell id="g820REes-5MASwQJyq1x-89" value="+ Create ()" style="text;align=left;verticalAlign=top;spacingLeft=4;spacingRight=4;overflow=hidden;rotatable=0;points=[[0,0.5],[1,0.5]];portConstraint=eastwest;rounded=0;shadow=0;html=0;" parent="g820REes-5MASwQJyq1x-87" vertex="1">
          <mxGeometry y="53" width="160" height="27" as="geometry" />
        </mxCell>
        <mxCell id="g820REes-5MASwQJyq1x-90" value="+ Update ()" style="text;align=left;verticalAlign=top;spacingLeft=4;spacingRight=4;overflow=hidden;rotatable=0;points=[[0,0.5],[1,0.5]];portConstraint=eastwest;rounded=0;shadow=0;html=0;" parent="g820REes-5MASwQJyq1x-87" vertex="1">
          <mxGeometry y="80" width="160" height="27" as="geometry" />
        </mxCell>
        <mxCell id="g820REes-5MASwQJyq1x-91" value="+ Delete ()" style="text;align=left;verticalAlign=top;spacingLeft=4;spacingRight=4;overflow=hidden;rotatable=0;points=[[0,0.5],[1,0.5]];portConstraint=eastwest;rounded=0;shadow=0;html=0;" parent="g820REes-5MASwQJyq1x-87" vertex="1">
          <mxGeometry y="107" width="160" height="27" as="geometry" />
        </mxCell>
        <mxCell id="g820REes-5MASwQJyq1x-92" value="+ GetAll ()" style="text;align=left;verticalAlign=top;spacingLeft=4;spacingRight=4;overflow=hidden;rotatable=0;points=[[0,0.5],[1,0.5]];portConstraint=eastwest;rounded=0;shadow=0;html=0;" parent="g820REes-5MASwQJyq1x-87" vertex="1">
          <mxGeometry y="134" width="160" height="27" as="geometry" />
        </mxCell>
        <mxCell id="g820REes-5MASwQJyq1x-93" value="+ GetByChatId()" style="text;align=left;verticalAlign=top;spacingLeft=4;spacingRight=4;overflow=hidden;rotatable=0;points=[[0,0.5],[1,0.5]];portConstraint=eastwest;rounded=0;shadow=0;html=0;" parent="g820REes-5MASwQJyq1x-87" vertex="1">
          <mxGeometry y="161" width="160" height="27" as="geometry" />
        </mxCell>
        <mxCell id="g820REes-5MASwQJyq1x-96" value="" style="endArrow=block;dashed=1;endFill=0;endSize=12;html=1;entryX=0.5;entryY=1;entryDx=0;entryDy=0;exitX=0.5;exitY=0;exitDx=0;exitDy=0;" parent="1" source="g820REes-5MASwQJyq1x-87" target="g820REes-5MASwQJyq1x-78" edge="1">
          <mxGeometry width="160" relative="1" as="geometry">
            <mxPoint x="630" y="1600" as="sourcePoint" />
            <mxPoint x="790" y="1600" as="targetPoint" />
          </mxGeometry>
        </mxCell>
        <mxCell id="g820REes-5MASwQJyq1x-98" value="IShelterRepo" style="swimlane;fontStyle=2;align=center;verticalAlign=top;childLayout=stackLayout;horizontal=1;startSize=26;horizontalStack=0;resizeParent=1;resizeLast=0;collapsible=1;marginBottom=0;rounded=0;shadow=0;strokeWidth=1;" parent="1" vertex="1">
          <mxGeometry x="225" y="1228" width="160" height="161" as="geometry">
            <mxRectangle x="220" y="120" width="160" height="26" as="alternateBounds" />
          </mxGeometry>
        </mxCell>
        <mxCell id="g820REes-5MASwQJyq1x-99" value="+ GetById ()" style="text;align=left;verticalAlign=top;spacingLeft=4;spacingRight=4;overflow=hidden;rotatable=0;points=[[0,0.5],[1,0.5]];portConstraint=eastwest;rounded=0;shadow=0;html=0;" parent="g820REes-5MASwQJyq1x-98" vertex="1">
          <mxGeometry y="26" width="160" height="27" as="geometry" />
        </mxCell>
        <mxCell id="g820REes-5MASwQJyq1x-100" value="+ Create ()" style="text;align=left;verticalAlign=top;spacingLeft=4;spacingRight=4;overflow=hidden;rotatable=0;points=[[0,0.5],[1,0.5]];portConstraint=eastwest;rounded=0;shadow=0;html=0;" parent="g820REes-5MASwQJyq1x-98" vertex="1">
          <mxGeometry y="53" width="160" height="27" as="geometry" />
        </mxCell>
        <mxCell id="g820REes-5MASwQJyq1x-101" value="+ Update ()" style="text;align=left;verticalAlign=top;spacingLeft=4;spacingRight=4;overflow=hidden;rotatable=0;points=[[0,0.5],[1,0.5]];portConstraint=eastwest;rounded=0;shadow=0;html=0;" parent="g820REes-5MASwQJyq1x-98" vertex="1">
          <mxGeometry y="80" width="160" height="27" as="geometry" />
        </mxCell>
        <mxCell id="g820REes-5MASwQJyq1x-102" value="+ Delete ()" style="text;align=left;verticalAlign=top;spacingLeft=4;spacingRight=4;overflow=hidden;rotatable=0;points=[[0,0.5],[1,0.5]];portConstraint=eastwest;rounded=0;shadow=0;html=0;" parent="g820REes-5MASwQJyq1x-98" vertex="1">
          <mxGeometry y="107" width="160" height="27" as="geometry" />
        </mxCell>
        <mxCell id="g820REes-5MASwQJyq1x-103" value="+ GetAll ()" style="text;align=left;verticalAlign=top;spacingLeft=4;spacingRight=4;overflow=hidden;rotatable=0;points=[[0,0.5],[1,0.5]];portConstraint=eastwest;rounded=0;shadow=0;html=0;" parent="g820REes-5MASwQJyq1x-98" vertex="1">
          <mxGeometry y="134" width="160" height="27" as="geometry" />
        </mxCell>
        <mxCell id="g820REes-5MASwQJyq1x-104" value="ShelterRepo" style="swimlane;fontStyle=2;align=center;verticalAlign=top;childLayout=stackLayout;horizontal=1;startSize=26;horizontalStack=0;resizeParent=1;resizeLast=0;collapsible=1;marginBottom=0;rounded=0;shadow=0;strokeWidth=1;" parent="1" vertex="1">
          <mxGeometry x="225" y="1588" width="160" height="161" as="geometry">
            <mxRectangle x="220" y="120" width="160" height="26" as="alternateBounds" />
          </mxGeometry>
        </mxCell>
        <mxCell id="g820REes-5MASwQJyq1x-105" value="+ GetById ()" style="text;align=left;verticalAlign=top;spacingLeft=4;spacingRight=4;overflow=hidden;rotatable=0;points=[[0,0.5],[1,0.5]];portConstraint=eastwest;rounded=0;shadow=0;html=0;" parent="g820REes-5MASwQJyq1x-104" vertex="1">
          <mxGeometry y="26" width="160" height="27" as="geometry" />
        </mxCell>
        <mxCell id="g820REes-5MASwQJyq1x-106" value="+ Create ()" style="text;align=left;verticalAlign=top;spacingLeft=4;spacingRight=4;overflow=hidden;rotatable=0;points=[[0,0.5],[1,0.5]];portConstraint=eastwest;rounded=0;shadow=0;html=0;" parent="g820REes-5MASwQJyq1x-104" vertex="1">
          <mxGeometry y="53" width="160" height="27" as="geometry" />
        </mxCell>
        <mxCell id="g820REes-5MASwQJyq1x-107" value="+ Update ()" style="text;align=left;verticalAlign=top;spacingLeft=4;spacingRight=4;overflow=hidden;rotatable=0;points=[[0,0.5],[1,0.5]];portConstraint=eastwest;rounded=0;shadow=0;html=0;" parent="g820REes-5MASwQJyq1x-104" vertex="1">
          <mxGeometry y="80" width="160" height="27" as="geometry" />
        </mxCell>
        <mxCell id="g820REes-5MASwQJyq1x-108" value="+ Delete ()" style="text;align=left;verticalAlign=top;spacingLeft=4;spacingRight=4;overflow=hidden;rotatable=0;points=[[0,0.5],[1,0.5]];portConstraint=eastwest;rounded=0;shadow=0;html=0;" parent="g820REes-5MASwQJyq1x-104" vertex="1">
          <mxGeometry y="107" width="160" height="27" as="geometry" />
        </mxCell>
        <mxCell id="g820REes-5MASwQJyq1x-109" value="+ GetAll ()" style="text;align=left;verticalAlign=top;spacingLeft=4;spacingRight=4;overflow=hidden;rotatable=0;points=[[0,0.5],[1,0.5]];portConstraint=eastwest;rounded=0;shadow=0;html=0;" parent="g820REes-5MASwQJyq1x-104" vertex="1">
          <mxGeometry y="134" width="160" height="27" as="geometry" />
        </mxCell>
        <mxCell id="g820REes-5MASwQJyq1x-110" value="" style="endArrow=block;dashed=1;endFill=0;endSize=12;html=1;entryX=0.5;entryY=1;entryDx=0;entryDy=0;exitX=0.5;exitY=0;exitDx=0;exitDy=0;" parent="1" source="g820REes-5MASwQJyq1x-104" target="g820REes-5MASwQJyq1x-98" edge="1">
          <mxGeometry width="160" relative="1" as="geometry">
            <mxPoint x="405" y="1601" as="sourcePoint" />
            <mxPoint x="565" y="1601" as="targetPoint" />
          </mxGeometry>
        </mxCell>
        <mxCell id="g820REes-5MASwQJyq1x-111" value="IAnimalRepo" style="swimlane;fontStyle=2;align=center;verticalAlign=top;childLayout=stackLayout;horizontal=1;startSize=26;horizontalStack=0;resizeParent=1;resizeLast=0;collapsible=1;marginBottom=0;rounded=0;shadow=0;strokeWidth=1;" parent="1" vertex="1">
          <mxGeometry x="680" y="1230" width="160" height="188" as="geometry">
            <mxRectangle x="220" y="120" width="160" height="26" as="alternateBounds" />
          </mxGeometry>
        </mxCell>
        <mxCell id="g820REes-5MASwQJyq1x-112" value="+ GetById ()" style="text;align=left;verticalAlign=top;spacingLeft=4;spacingRight=4;overflow=hidden;rotatable=0;points=[[0,0.5],[1,0.5]];portConstraint=eastwest;rounded=0;shadow=0;html=0;" parent="g820REes-5MASwQJyq1x-111" vertex="1">
          <mxGeometry y="26" width="160" height="27" as="geometry" />
        </mxCell>
        <mxCell id="g820REes-5MASwQJyq1x-113" value="+ Create ()" style="text;align=left;verticalAlign=top;spacingLeft=4;spacingRight=4;overflow=hidden;rotatable=0;points=[[0,0.5],[1,0.5]];portConstraint=eastwest;rounded=0;shadow=0;html=0;" parent="g820REes-5MASwQJyq1x-111" vertex="1">
          <mxGeometry y="53" width="160" height="27" as="geometry" />
        </mxCell>
        <mxCell id="g820REes-5MASwQJyq1x-114" value="+ Update ()" style="text;align=left;verticalAlign=top;spacingLeft=4;spacingRight=4;overflow=hidden;rotatable=0;points=[[0,0.5],[1,0.5]];portConstraint=eastwest;rounded=0;shadow=0;html=0;" parent="g820REes-5MASwQJyq1x-111" vertex="1">
          <mxGeometry y="80" width="160" height="27" as="geometry" />
        </mxCell>
        <mxCell id="g820REes-5MASwQJyq1x-115" value="+ Delete ()" style="text;align=left;verticalAlign=top;spacingLeft=4;spacingRight=4;overflow=hidden;rotatable=0;points=[[0,0.5],[1,0.5]];portConstraint=eastwest;rounded=0;shadow=0;html=0;" parent="g820REes-5MASwQJyq1x-111" vertex="1">
          <mxGeometry y="107" width="160" height="27" as="geometry" />
        </mxCell>
        <mxCell id="g820REes-5MASwQJyq1x-116" value="+ GetAll ()" style="text;align=left;verticalAlign=top;spacingLeft=4;spacingRight=4;overflow=hidden;rotatable=0;points=[[0,0.5],[1,0.5]];portConstraint=eastwest;rounded=0;shadow=0;html=0;" parent="g820REes-5MASwQJyq1x-111" vertex="1">
          <mxGeometry y="134" width="160" height="27" as="geometry" />
        </mxCell>
        <mxCell id="g820REes-5MASwQJyq1x-117" value="+ GetCrtrAll ()" style="text;align=left;verticalAlign=top;spacingLeft=4;spacingRight=4;overflow=hidden;rotatable=0;points=[[0,0.5],[1,0.5]];portConstraint=eastwest;rounded=0;shadow=0;html=0;" parent="g820REes-5MASwQJyq1x-111" vertex="1">
          <mxGeometry y="161" width="160" height="27" as="geometry" />
        </mxCell>
        <mxCell id="g820REes-5MASwQJyq1x-118" value="AnimalRepo" style="swimlane;fontStyle=2;align=center;verticalAlign=top;childLayout=stackLayout;horizontal=1;startSize=26;horizontalStack=0;resizeParent=1;resizeLast=0;collapsible=1;marginBottom=0;rounded=0;shadow=0;strokeWidth=1;" parent="1" vertex="1">
          <mxGeometry x="680" y="1590" width="160" height="188" as="geometry">
            <mxRectangle x="220" y="120" width="160" height="26" as="alternateBounds" />
          </mxGeometry>
        </mxCell>
        <mxCell id="g820REes-5MASwQJyq1x-119" value="+ GetById ()" style="text;align=left;verticalAlign=top;spacingLeft=4;spacingRight=4;overflow=hidden;rotatable=0;points=[[0,0.5],[1,0.5]];portConstraint=eastwest;rounded=0;shadow=0;html=0;" parent="g820REes-5MASwQJyq1x-118" vertex="1">
          <mxGeometry y="26" width="160" height="27" as="geometry" />
        </mxCell>
        <mxCell id="g820REes-5MASwQJyq1x-120" value="+ Create ()" style="text;align=left;verticalAlign=top;spacingLeft=4;spacingRight=4;overflow=hidden;rotatable=0;points=[[0,0.5],[1,0.5]];portConstraint=eastwest;rounded=0;shadow=0;html=0;" parent="g820REes-5MASwQJyq1x-118" vertex="1">
          <mxGeometry y="53" width="160" height="27" as="geometry" />
        </mxCell>
        <mxCell id="g820REes-5MASwQJyq1x-121" value="+ Update ()" style="text;align=left;verticalAlign=top;spacingLeft=4;spacingRight=4;overflow=hidden;rotatable=0;points=[[0,0.5],[1,0.5]];portConstraint=eastwest;rounded=0;shadow=0;html=0;" parent="g820REes-5MASwQJyq1x-118" vertex="1">
          <mxGeometry y="80" width="160" height="27" as="geometry" />
        </mxCell>
        <mxCell id="g820REes-5MASwQJyq1x-122" value="+ Delete ()" style="text;align=left;verticalAlign=top;spacingLeft=4;spacingRight=4;overflow=hidden;rotatable=0;points=[[0,0.5],[1,0.5]];portConstraint=eastwest;rounded=0;shadow=0;html=0;" parent="g820REes-5MASwQJyq1x-118" vertex="1">
          <mxGeometry y="107" width="160" height="27" as="geometry" />
        </mxCell>
        <mxCell id="g820REes-5MASwQJyq1x-123" value="+ GetAll ()" style="text;align=left;verticalAlign=top;spacingLeft=4;spacingRight=4;overflow=hidden;rotatable=0;points=[[0,0.5],[1,0.5]];portConstraint=eastwest;rounded=0;shadow=0;html=0;" parent="g820REes-5MASwQJyq1x-118" vertex="1">
          <mxGeometry y="134" width="160" height="27" as="geometry" />
        </mxCell>
        <mxCell id="g820REes-5MASwQJyq1x-124" value="+ GetCrtrAll()" style="text;align=left;verticalAlign=top;spacingLeft=4;spacingRight=4;overflow=hidden;rotatable=0;points=[[0,0.5],[1,0.5]];portConstraint=eastwest;rounded=0;shadow=0;html=0;" parent="g820REes-5MASwQJyq1x-118" vertex="1">
          <mxGeometry y="161" width="160" height="27" as="geometry" />
        </mxCell>
        <mxCell id="g820REes-5MASwQJyq1x-125" value="" style="endArrow=block;dashed=1;endFill=0;endSize=12;html=1;entryX=0.5;entryY=1;entryDx=0;entryDy=0;exitX=0.5;exitY=0;exitDx=0;exitDy=0;" parent="1" source="g820REes-5MASwQJyq1x-118" target="g820REes-5MASwQJyq1x-111" edge="1">
          <mxGeometry width="160" relative="1" as="geometry">
            <mxPoint x="860" y="1590" as="sourcePoint" />
            <mxPoint x="1020" y="1590" as="targetPoint" />
          </mxGeometry>
        </mxCell>
        <mxCell id="g820REes-5MASwQJyq1x-126" value="Animal" style="swimlane;fontStyle=2;align=center;verticalAlign=top;childLayout=stackLayout;horizontal=1;startSize=26;horizontalStack=0;resizeParent=1;resizeLast=0;collapsible=1;marginBottom=0;rounded=0;shadow=0;strokeWidth=1;" parent="1" vertex="1">
          <mxGeometry x="1690" y="961" width="160" height="240" as="geometry">
            <mxRectangle x="220" y="120" width="160" height="26" as="alternateBounds" />
          </mxGeometry>
        </mxCell>
        <mxCell id="g820REes-5MASwQJyq1x-127" value="+ id" style="text;align=left;verticalAlign=top;spacingLeft=4;spacingRight=4;overflow=hidden;rotatable=0;points=[[0,0.5],[1,0.5]];portConstraint=eastwest;rounded=0;shadow=0;html=0;" parent="g820REes-5MASwQJyq1x-126" vertex="1">
          <mxGeometry y="26" width="160" height="26" as="geometry" />
        </mxCell>
        <mxCell id="g820REes-5MASwQJyq1x-128" value="+ Name" style="text;align=left;verticalAlign=top;spacingLeft=4;spacingRight=4;overflow=hidden;rotatable=0;points=[[0,0.5],[1,0.5]];portConstraint=eastwest;rounded=0;shadow=0;html=0;" parent="g820REes-5MASwQJyq1x-126" vertex="1">
          <mxGeometry y="52" width="160" height="26" as="geometry" />
        </mxCell>
        <mxCell id="g820REes-5MASwQJyq1x-129" value="+ Age" style="text;align=left;verticalAlign=top;spacingLeft=4;spacingRight=4;overflow=hidden;rotatable=0;points=[[0,0.5],[1,0.5]];portConstraint=eastwest;rounded=0;shadow=0;html=0;" parent="g820REes-5MASwQJyq1x-126" vertex="1">
          <mxGeometry y="78" width="160" height="26" as="geometry" />
        </mxCell>
        <mxCell id="g820REes-5MASwQJyq1x-130" value="+ Height" style="text;align=left;verticalAlign=top;spacingLeft=4;spacingRight=4;overflow=hidden;rotatable=0;points=[[0,0.5],[1,0.5]];portConstraint=eastwest;rounded=0;shadow=0;html=0;" parent="g820REes-5MASwQJyq1x-126" vertex="1">
          <mxGeometry y="104" width="160" height="26" as="geometry" />
        </mxCell>
        <mxCell id="g820REes-5MASwQJyq1x-131" value="+ Weight" style="text;align=left;verticalAlign=top;spacingLeft=4;spacingRight=4;overflow=hidden;rotatable=0;points=[[0,0.5],[1,0.5]];portConstraint=eastwest;rounded=0;shadow=0;html=0;" parent="g820REes-5MASwQJyq1x-126" vertex="1">
          <mxGeometry y="130" width="160" height="26" as="geometry" />
        </mxCell>
        <mxCell id="g820REes-5MASwQJyq1x-132" value="+ Shelter id" style="text;align=left;verticalAlign=top;spacingLeft=4;spacingRight=4;overflow=hidden;rotatable=0;points=[[0,0.5],[1,0.5]];portConstraint=eastwest;rounded=0;shadow=0;html=0;" parent="g820REes-5MASwQJyq1x-126" vertex="1">
          <mxGeometry y="156" width="160" height="26" as="geometry" />
        </mxCell>
        <mxCell id="g820REes-5MASwQJyq1x-133" value="+ Type" style="text;align=left;verticalAlign=top;spacingLeft=4;spacingRight=4;overflow=hidden;rotatable=0;points=[[0,0.5],[1,0.5]];portConstraint=eastwest;rounded=0;shadow=0;html=0;" parent="g820REes-5MASwQJyq1x-126" vertex="1">
          <mxGeometry y="182" width="160" height="26" as="geometry" />
        </mxCell>
        <mxCell id="g820REes-5MASwQJyq1x-134" value="+ Gender" style="text;align=left;verticalAlign=top;spacingLeft=4;spacingRight=4;overflow=hidden;rotatable=0;points=[[0,0.5],[1,0.5]];portConstraint=eastwest;rounded=0;shadow=0;html=0;" parent="g820REes-5MASwQJyq1x-126" vertex="1">
          <mxGeometry y="208" width="160" height="26" as="geometry" />
        </mxCell>
        <mxCell id="g820REes-5MASwQJyq1x-135" value="Purchase" style="swimlane;fontStyle=2;align=center;verticalAlign=top;childLayout=stackLayout;horizontal=1;startSize=26;horizontalStack=0;resizeParent=1;resizeLast=0;collapsible=1;marginBottom=0;rounded=0;shadow=0;strokeWidth=1;" parent="1" vertex="1">
          <mxGeometry x="1900" y="985" width="160" height="198" as="geometry">
            <mxRectangle x="220" y="120" width="160" height="26" as="alternateBounds" />
          </mxGeometry>
        </mxCell>
        <mxCell id="g820REes-5MASwQJyq1x-136" value="+ id" style="text;align=left;verticalAlign=top;spacingLeft=4;spacingRight=4;overflow=hidden;rotatable=0;points=[[0,0.5],[1,0.5]];portConstraint=eastwest;rounded=0;shadow=0;html=0;" parent="g820REes-5MASwQJyq1x-135" vertex="1">
          <mxGeometry y="26" width="160" height="26" as="geometry" />
        </mxCell>
        <mxCell id="g820REes-5MASwQJyq1x-137" value="+ Name" style="text;align=left;verticalAlign=top;spacingLeft=4;spacingRight=4;overflow=hidden;rotatable=0;points=[[0,0.5],[1,0.5]];portConstraint=eastwest;rounded=0;shadow=0;html=0;" parent="g820REes-5MASwQJyq1x-135" vertex="1">
          <mxGeometry y="52" width="160" height="26" as="geometry" />
        </mxCell>
        <mxCell id="g820REes-5MASwQJyq1x-138" value="+ Frequency" style="text;align=left;verticalAlign=top;spacingLeft=4;spacingRight=4;overflow=hidden;rotatable=0;points=[[0,0.5],[1,0.5]];portConstraint=eastwest;rounded=0;shadow=0;html=0;spacing=2;" parent="g820REes-5MASwQJyq1x-135" vertex="1">
          <mxGeometry y="78" width="160" height="30" as="geometry" />
        </mxCell>
        <mxCell id="g820REes-5MASwQJyq1x-139" value="+ Cost" style="text;align=left;verticalAlign=top;spacingLeft=4;spacingRight=4;overflow=hidden;rotatable=0;points=[[0,0.5],[1,0.5]];portConstraint=eastwest;rounded=0;shadow=0;html=0;" parent="g820REes-5MASwQJyq1x-135" vertex="1">
          <mxGeometry y="108" width="160" height="30" as="geometry" />
        </mxCell>
        <mxCell id="g820REes-5MASwQJyq1x-140" value="+ Last date" style="text;align=left;verticalAlign=top;spacingLeft=4;spacingRight=4;overflow=hidden;rotatable=0;points=[[0,0.5],[1,0.5]];portConstraint=eastwest;rounded=0;shadow=0;html=0;" parent="g820REes-5MASwQJyq1x-135" vertex="1">
          <mxGeometry y="138" width="160" height="30" as="geometry" />
        </mxCell>
        <mxCell id="g820REes-5MASwQJyq1x-141" value="+ Animal id" style="text;align=left;verticalAlign=top;spacingLeft=4;spacingRight=4;overflow=hidden;rotatable=0;points=[[0,0.5],[1,0.5]];portConstraint=eastwest;rounded=0;shadow=0;html=0;" parent="g820REes-5MASwQJyq1x-135" vertex="1">
          <mxGeometry y="168" width="160" height="30" as="geometry" />
        </mxCell>
        <mxCell id="g820REes-5MASwQJyq1x-142" value="Curator" style="swimlane;fontStyle=2;align=center;verticalAlign=top;childLayout=stackLayout;horizontal=1;startSize=26;horizontalStack=0;resizeParent=1;resizeLast=0;collapsible=1;marginBottom=0;rounded=0;shadow=0;strokeWidth=1;" parent="1" vertex="1">
          <mxGeometry x="1690" y="1250" width="160" height="130" as="geometry">
            <mxRectangle x="220" y="120" width="160" height="26" as="alternateBounds" />
          </mxGeometry>
        </mxCell>
        <mxCell id="g820REes-5MASwQJyq1x-143" value="+ id" style="text;align=left;verticalAlign=top;spacingLeft=4;spacingRight=4;overflow=hidden;rotatable=0;points=[[0,0.5],[1,0.5]];portConstraint=eastwest;rounded=0;shadow=0;html=0;" parent="g820REes-5MASwQJyq1x-142" vertex="1">
          <mxGeometry y="26" width="160" height="26" as="geometry" />
        </mxCell>
        <mxCell id="g820REes-5MASwQJyq1x-144" value="+ Name" style="text;align=left;verticalAlign=top;spacingLeft=4;spacingRight=4;overflow=hidden;rotatable=0;points=[[0,0.5],[1,0.5]];portConstraint=eastwest;rounded=0;shadow=0;html=0;" parent="g820REes-5MASwQJyq1x-142" vertex="1">
          <mxGeometry y="52" width="160" height="26" as="geometry" />
        </mxCell>
        <mxCell id="g820REes-5MASwQJyq1x-145" value="+ Surname" style="text;align=left;verticalAlign=top;spacingLeft=4;spacingRight=4;overflow=hidden;rotatable=0;points=[[0,0.5],[1,0.5]];portConstraint=eastwest;rounded=0;shadow=0;html=0;" parent="g820REes-5MASwQJyq1x-142" vertex="1">
          <mxGeometry y="78" width="160" height="26" as="geometry" />
        </mxCell>
        <mxCell id="g820REes-5MASwQJyq1x-146" value="+ Phone number" style="text;align=left;verticalAlign=top;spacingLeft=4;spacingRight=4;overflow=hidden;rotatable=0;points=[[0,0.5],[1,0.5]];portConstraint=eastwest;rounded=0;shadow=0;html=0;" parent="g820REes-5MASwQJyq1x-142" vertex="1">
          <mxGeometry y="104" width="160" height="26" as="geometry" />
        </mxCell>
        <mxCell id="g820REes-5MASwQJyq1x-147" value="Shelter" style="swimlane;fontStyle=2;align=center;verticalAlign=top;childLayout=stackLayout;horizontal=1;startSize=26;horizontalStack=0;resizeParent=1;resizeLast=0;collapsible=1;marginBottom=0;rounded=0;shadow=0;strokeWidth=1;" parent="1" vertex="1">
          <mxGeometry x="1690" y="810" width="160" height="110" as="geometry">
            <mxRectangle x="220" y="120" width="160" height="26" as="alternateBounds" />
          </mxGeometry>
        </mxCell>
        <mxCell id="g820REes-5MASwQJyq1x-148" value="+ id" style="text;align=left;verticalAlign=top;spacingLeft=4;spacingRight=4;overflow=hidden;rotatable=0;points=[[0,0.5],[1,0.5]];portConstraint=eastwest;rounded=0;shadow=0;html=0;" parent="g820REes-5MASwQJyq1x-147" vertex="1">
          <mxGeometry y="26" width="160" height="26" as="geometry" />
        </mxCell>
        <mxCell id="g820REes-5MASwQJyq1x-149" value="+ Street" style="text;align=left;verticalAlign=top;spacingLeft=4;spacingRight=4;overflow=hidden;rotatable=0;points=[[0,0.5],[1,0.5]];portConstraint=eastwest;rounded=0;shadow=0;html=0;" parent="g820REes-5MASwQJyq1x-147" vertex="1">
          <mxGeometry y="52" width="160" height="26" as="geometry" />
        </mxCell>
        <mxCell id="g820REes-5MASwQJyq1x-150" value="+ House" style="text;align=left;verticalAlign=top;spacingLeft=4;spacingRight=4;overflow=hidden;rotatable=0;points=[[0,0.5],[1,0.5]];portConstraint=eastwest;rounded=0;shadow=0;html=0;" parent="g820REes-5MASwQJyq1x-147" vertex="1">
          <mxGeometry y="78" width="160" height="26" as="geometry" />
        </mxCell>
        <mxCell id="g820REes-5MASwQJyq1x-153" value="" style="endArrow=none;html=1;endSize=12;startArrow=diamondThin;startSize=15;startFill=0;rounded=0;endFill=0;exitX=0.5;exitY=0;exitDx=0;exitDy=0;entryX=0.5;entryY=1;entryDx=0;entryDy=0;" parent="1" source="g820REes-5MASwQJyq1x-126" target="g820REes-5MASwQJyq1x-147" edge="1">
          <mxGeometry x="0.0769" relative="1" as="geometry">
            <mxPoint x="1690" y="1018" as="sourcePoint" />
            <mxPoint x="1500" y="780" as="targetPoint" />
            <mxPoint as="offset" />
          </mxGeometry>
        </mxCell>
        <mxCell id="g820REes-5MASwQJyq1x-154" value="" style="endArrow=none;html=1;endSize=12;startArrow=diamondThin;startSize=15;startFill=0;rounded=0;endFill=0;exitX=0.5;exitY=1;exitDx=0;exitDy=0;" parent="1" source="g820REes-5MASwQJyq1x-126" edge="1">
          <mxGeometry x="-0.0204" relative="1" as="geometry">
            <mxPoint x="1860" y="1210" as="sourcePoint" />
            <mxPoint x="1770" y="1230" as="targetPoint" />
            <mxPoint as="offset" />
          </mxGeometry>
        </mxCell>
        <mxCell id="g820REes-5MASwQJyq1x-157" value="" style="endArrow=none;html=1;endSize=12;startArrow=diamondThin;startSize=15;startFill=0;rounded=0;endFill=0;exitX=0;exitY=0.5;exitDx=0;exitDy=0;entryX=1;entryY=0.5;entryDx=0;entryDy=0;" parent="1" source="g820REes-5MASwQJyq1x-138" target="g820REes-5MASwQJyq1x-130" edge="1">
          <mxGeometry x="-0.0204" relative="1" as="geometry">
            <mxPoint x="1710" y="1171" as="sourcePoint" />
            <mxPoint x="1550" y="1171" as="targetPoint" />
            <mxPoint as="offset" />
          </mxGeometry>
        </mxCell>
        <mxCell id="g820REes-5MASwQJyq1x-160" value="" style="endArrow=open;endSize=12;dashed=1;html=1;rounded=0;edgeStyle=orthogonalEdgeStyle;entryX=0.509;entryY=1.029;entryDx=0;entryDy=0;entryPerimeter=0;exitX=0.75;exitY=0;exitDx=0;exitDy=0;" parent="1" source="g820REes-5MASwQJyq1x-71" target="g820REes-5MASwQJyq1x-141" edge="1">
          <mxGeometry width="160" relative="1" as="geometry">
            <mxPoint x="980" y="1220" as="sourcePoint" />
            <mxPoint x="1520" y="980" as="targetPoint" />
            <Array as="points">
              <mxPoint x="1020" y="1490" />
              <mxPoint x="1981" y="1490" />
            </Array>
          </mxGeometry>
        </mxCell>
        <mxCell id="g820REes-5MASwQJyq1x-161" value="" style="endArrow=open;endSize=12;dashed=1;html=1;rounded=0;exitX=0.75;exitY=0;exitDx=0;exitDy=0;edgeStyle=orthogonalEdgeStyle;entryX=0;entryY=0.5;entryDx=0;entryDy=0;" parent="1" source="g820REes-5MASwQJyq1x-118" target="g820REes-5MASwQJyq1x-134" edge="1">
          <mxGeometry width="160" relative="1" as="geometry">
            <mxPoint x="1080" y="1384" as="sourcePoint" />
            <mxPoint x="1481" y="946" as="targetPoint" />
            <Array as="points">
              <mxPoint x="800" y="1490" />
              <mxPoint x="1330" y="1490" />
              <mxPoint x="1330" y="1182" />
            </Array>
          </mxGeometry>
        </mxCell>
        <mxCell id="g820REes-5MASwQJyq1x-162" value="" style="endArrow=open;endSize=12;dashed=1;html=1;rounded=0;exitX=0.75;exitY=0;exitDx=0;exitDy=0;edgeStyle=orthogonalEdgeStyle;entryX=0;entryY=0.5;entryDx=0;entryDy=0;" parent="1" source="g820REes-5MASwQJyq1x-87" target="g820REes-5MASwQJyq1x-143" edge="1">
          <mxGeometry width="160" relative="1" as="geometry">
            <mxPoint x="1090" y="1394" as="sourcePoint" />
            <mxPoint x="1491" y="956" as="targetPoint" />
            <Array as="points">
              <mxPoint x="570" y="1490" />
              <mxPoint x="1330" y="1490" />
              <mxPoint x="1330" y="1289" />
            </Array>
          </mxGeometry>
        </mxCell>
        <mxCell id="g820REes-5MASwQJyq1x-163" value="" style="endArrow=open;endSize=12;dashed=1;html=1;rounded=0;exitX=0.75;exitY=0;exitDx=0;exitDy=0;edgeStyle=orthogonalEdgeStyle;entryX=0;entryY=0.5;entryDx=0;entryDy=0;" parent="1" source="g820REes-5MASwQJyq1x-104" target="g820REes-5MASwQJyq1x-148" edge="1">
          <mxGeometry width="160" relative="1" as="geometry">
            <mxPoint x="1100" y="1404" as="sourcePoint" />
            <mxPoint x="1110" y="710" as="targetPoint" />
            <Array as="points">
              <mxPoint x="345" y="1490" />
              <mxPoint x="1330" y="1490" />
              <mxPoint x="1330" y="850" />
            </Array>
          </mxGeometry>
        </mxCell>
        <mxCell id="g820REes-5MASwQJyq1x-165" value="" style="endArrow=diamondThin;endFill=1;endSize=24;html=1;rounded=0;exitX=0.5;exitY=0;exitDx=0;exitDy=0;edgeStyle=orthogonalEdgeStyle;" parent="1" source="g820REes-5MASwQJyq1x-65" edge="1">
          <mxGeometry width="160" relative="1" as="geometry">
            <mxPoint x="790" y="1160" as="sourcePoint" />
            <mxPoint x="978" y="1114" as="targetPoint" />
            <Array as="points">
              <mxPoint x="978" y="1228" />
            </Array>
          </mxGeometry>
        </mxCell>
        <mxCell id="g820REes-5MASwQJyq1x-167" value="" style="endArrow=diamondThin;endFill=1;endSize=24;html=1;rounded=0;exitX=0.5;exitY=0;exitDx=0;exitDy=0;entryX=0.489;entryY=0.995;entryDx=0;entryDy=0;entryPerimeter=0;edgeStyle=orthogonalEdgeStyle;" parent="1" source="g820REes-5MASwQJyq1x-111" target="8VdLmAS2cf7esQPfnooG-66" edge="1">
          <mxGeometry width="160" relative="1" as="geometry">
            <mxPoint x="960" y="1290" as="sourcePoint" />
            <mxPoint x="988" y="1042" as="targetPoint" />
            <Array as="points">
              <mxPoint x="758" y="1230" />
            </Array>
          </mxGeometry>
        </mxCell>
        <mxCell id="g820REes-5MASwQJyq1x-169" value="" style="endArrow=diamondThin;endFill=1;endSize=24;html=1;rounded=0;exitX=0.5;exitY=0;exitDx=0;exitDy=0;edgeStyle=orthogonalEdgeStyle;" parent="1" source="g820REes-5MASwQJyq1x-78" edge="1">
          <mxGeometry width="160" relative="1" as="geometry">
            <mxPoint x="730" y="1340" as="sourcePoint" />
            <mxPoint x="523" y="1140" as="targetPoint" />
            <Array as="points">
              <mxPoint x="523" y="1228" />
            </Array>
          </mxGeometry>
        </mxCell>
        <mxCell id="g820REes-5MASwQJyq1x-170" value="" style="endArrow=diamondThin;endFill=1;endSize=24;html=1;rounded=0;exitX=0.5;exitY=0;exitDx=0;exitDy=0;edgeStyle=orthogonalEdgeStyle;" parent="1" source="g820REes-5MASwQJyq1x-98" edge="1">
          <mxGeometry width="160" relative="1" as="geometry">
            <mxPoint x="265" y="1328" as="sourcePoint" />
            <mxPoint x="302" y="1110" as="targetPoint" />
            <Array as="points">
              <mxPoint x="302" y="1228" />
            </Array>
          </mxGeometry>
        </mxCell>
        <mxCell id="g820REes-5MASwQJyq1x-172" value="BL" style="shape=umlFrame;whiteSpace=wrap;html=1;pointerEvents=0;fillColor=#60a917;strokeColor=#2D7600;fontColor=#ffffff;strokeWidth=3;" parent="1" vertex="1">
          <mxGeometry x="130" y="760" width="2000" height="780" as="geometry" />
        </mxCell>
        <mxCell id="g820REes-5MASwQJyq1x-173" value="DA" style="shape=umlFrame;whiteSpace=wrap;html=1;pointerEvents=0;fillColor=#60a917;fontColor=#ffffff;strokeColor=#2D7600;strokeWidth=3;" parent="1" vertex="1">
          <mxGeometry x="130" y="1570" width="2000" height="240" as="geometry" />
        </mxCell>
        <mxCell id="g820REes-5MASwQJyq1x-174" value="" style="endArrow=none;html=1;endSize=12;startArrow=diamondThin;startSize=15;startFill=0;rounded=0;endFill=0;exitX=0.5;exitY=0;exitDx=0;exitDy=0;" parent="1" source="g820REes-5MASwQJyq1x-142" edge="1">
          <mxGeometry x="0.0769" relative="1" as="geometry">
            <mxPoint x="1780" y="971" as="sourcePoint" />
            <mxPoint x="1770" y="1220" as="targetPoint" />
            <mxPoint as="offset" />
          </mxGeometry>
        </mxCell>
        <mxCell id="XMju2qWMDDN4Pqfdi6xI-67" value="" style="endArrow=diamondThin;endFill=0;endSize=24;html=1;rounded=0;exitX=0.5;exitY=0;exitDx=0;exitDy=0;edgeStyle=orthogonalEdgeStyle;" parent="1" source="37" edge="1">
          <mxGeometry width="160" relative="1" as="geometry">
            <mxPoint x="660" y="1300" as="sourcePoint" />
            <mxPoint x="610" y="720" as="targetPoint" />
          </mxGeometry>
        </mxCell>
        <mxCell id="XMju2qWMDDN4Pqfdi6xI-69" value="" style="endArrow=diamondThin;endFill=0;endSize=24;html=1;rounded=0;exitX=0.5;exitY=0;exitDx=0;exitDy=0;edgeStyle=orthogonalEdgeStyle;" parent="1" source="48" edge="1">
          <mxGeometry width="160" relative="1" as="geometry">
            <mxPoint x="325" y="970" as="sourcePoint" />
            <mxPoint x="610" y="720" as="targetPoint" />
          </mxGeometry>
        </mxCell>
        <mxCell id="XMju2qWMDDN4Pqfdi6xI-70" value="" style="endArrow=diamondThin;endFill=0;endSize=24;html=1;rounded=0;exitX=0.5;exitY=0;exitDx=0;exitDy=0;edgeStyle=orthogonalEdgeStyle;" parent="1" source="59" edge="1">
          <mxGeometry width="160" relative="1" as="geometry">
            <mxPoint x="335" y="980" as="sourcePoint" />
            <mxPoint x="610" y="720" as="targetPoint" />
          </mxGeometry>
        </mxCell>
        <mxCell id="XMju2qWMDDN4Pqfdi6xI-71" value="" style="endArrow=diamondThin;endFill=0;endSize=24;html=1;rounded=0;exitX=0.5;exitY=0;exitDx=0;exitDy=0;edgeStyle=orthogonalEdgeStyle;" parent="1" source="W4vAiNo6CAo6J-bxIwZZ-77" edge="1">
          <mxGeometry width="160" relative="1" as="geometry">
            <mxPoint x="345" y="990" as="sourcePoint" />
            <mxPoint x="610" y="720" as="targetPoint" />
          </mxGeometry>
        </mxCell>
        <mxCell id="C16Kg4b49XEJpj3eTu0I-63" value="Disease&#xa;" style="swimlane;fontStyle=2;align=center;verticalAlign=top;childLayout=stackLayout;horizontal=1;startSize=26;horizontalStack=0;resizeParent=1;resizeLast=0;collapsible=1;marginBottom=0;rounded=0;shadow=0;strokeWidth=1;" parent="1" vertex="1">
          <mxGeometry x="1460" y="960" width="160" height="198" as="geometry">
            <mxRectangle x="220" y="120" width="160" height="26" as="alternateBounds" />
          </mxGeometry>
        </mxCell>
        <mxCell id="C16Kg4b49XEJpj3eTu0I-64" value="+ id" style="text;align=left;verticalAlign=top;spacingLeft=4;spacingRight=4;overflow=hidden;rotatable=0;points=[[0,0.5],[1,0.5]];portConstraint=eastwest;rounded=0;shadow=0;html=0;" parent="C16Kg4b49XEJpj3eTu0I-63" vertex="1">
          <mxGeometry y="26" width="160" height="26" as="geometry" />
        </mxCell>
        <mxCell id="C16Kg4b49XEJpj3eTu0I-65" value="+ Diagnosis" style="text;align=left;verticalAlign=top;spacingLeft=4;spacingRight=4;overflow=hidden;rotatable=0;points=[[0,0.5],[1,0.5]];portConstraint=eastwest;rounded=0;shadow=0;html=0;" parent="C16Kg4b49XEJpj3eTu0I-63" vertex="1">
          <mxGeometry y="52" width="160" height="26" as="geometry" />
        </mxCell>
        <mxCell id="C16Kg4b49XEJpj3eTu0I-66" value="+ Symptoms" style="text;align=left;verticalAlign=top;spacingLeft=4;spacingRight=4;overflow=hidden;rotatable=0;points=[[0,0.5],[1,0.5]];portConstraint=eastwest;rounded=0;shadow=0;html=0;spacing=2;" parent="C16Kg4b49XEJpj3eTu0I-63" vertex="1">
          <mxGeometry y="78" width="160" height="30" as="geometry" />
        </mxCell>
        <mxCell id="C16Kg4b49XEJpj3eTu0I-67" value="+ Cause" style="text;align=left;verticalAlign=top;spacingLeft=4;spacingRight=4;overflow=hidden;rotatable=0;points=[[0,0.5],[1,0.5]];portConstraint=eastwest;rounded=0;shadow=0;html=0;" parent="C16Kg4b49XEJpj3eTu0I-63" vertex="1">
          <mxGeometry y="108" width="160" height="30" as="geometry" />
        </mxCell>
        <mxCell id="C16Kg4b49XEJpj3eTu0I-70" value="+ Animal id" style="text;align=left;verticalAlign=top;spacingLeft=4;spacingRight=4;overflow=hidden;rotatable=0;points=[[0,0.5],[1,0.5]];portConstraint=eastwest;rounded=0;shadow=0;html=0;" parent="C16Kg4b49XEJpj3eTu0I-63" vertex="1">
          <mxGeometry y="138" width="160" height="30" as="geometry" />
        </mxCell>
        <mxCell id="BNFZ0rqhJsxP_BBbkfFe-63" value="+ Is Chronic" style="text;align=left;verticalAlign=top;spacingLeft=4;spacingRight=4;overflow=hidden;rotatable=0;points=[[0,0.5],[1,0.5]];portConstraint=eastwest;rounded=0;shadow=0;html=0;" vertex="1" parent="C16Kg4b49XEJpj3eTu0I-63">
          <mxGeometry y="168" width="160" height="30" as="geometry" />
        </mxCell>
        <mxCell id="C16Kg4b49XEJpj3eTu0I-71" value="" style="endArrow=none;html=1;endSize=12;startArrow=diamondThin;startSize=15;startFill=0;rounded=0;endFill=0;exitX=1;exitY=0.5;exitDx=0;exitDy=0;entryX=0;entryY=0.5;entryDx=0;entryDy=0;" parent="1" source="C16Kg4b49XEJpj3eTu0I-64" target="g820REes-5MASwQJyq1x-127" edge="1">
          <mxGeometry x="-0.0204" relative="1" as="geometry">
            <mxPoint x="1910" y="1088" as="sourcePoint" />
            <mxPoint x="1860" y="1088" as="targetPoint" />
            <mxPoint as="offset" />
          </mxGeometry>
        </mxCell>
        <mxCell id="BNFZ0rqhJsxP_BBbkfFe-64" value="DiseaseRepo" style="swimlane;fontStyle=2;align=center;verticalAlign=top;childLayout=stackLayout;horizontal=1;startSize=26;horizontalStack=0;resizeParent=1;resizeLast=0;collapsible=1;marginBottom=0;rounded=0;shadow=0;strokeWidth=1;" vertex="1" parent="1">
          <mxGeometry x="1130" y="1588" width="160" height="188" as="geometry">
            <mxRectangle x="220" y="120" width="160" height="26" as="alternateBounds" />
          </mxGeometry>
        </mxCell>
        <mxCell id="BNFZ0rqhJsxP_BBbkfFe-65" value="+ GetById ()" style="text;align=left;verticalAlign=top;spacingLeft=4;spacingRight=4;overflow=hidden;rotatable=0;points=[[0,0.5],[1,0.5]];portConstraint=eastwest;rounded=0;shadow=0;html=0;" vertex="1" parent="BNFZ0rqhJsxP_BBbkfFe-64">
          <mxGeometry y="26" width="160" height="27" as="geometry" />
        </mxCell>
        <mxCell id="BNFZ0rqhJsxP_BBbkfFe-66" value="+ Create ()" style="text;align=left;verticalAlign=top;spacingLeft=4;spacingRight=4;overflow=hidden;rotatable=0;points=[[0,0.5],[1,0.5]];portConstraint=eastwest;rounded=0;shadow=0;html=0;" vertex="1" parent="BNFZ0rqhJsxP_BBbkfFe-64">
          <mxGeometry y="53" width="160" height="27" as="geometry" />
        </mxCell>
        <mxCell id="BNFZ0rqhJsxP_BBbkfFe-67" value="+ Update ()" style="text;align=left;verticalAlign=top;spacingLeft=4;spacingRight=4;overflow=hidden;rotatable=0;points=[[0,0.5],[1,0.5]];portConstraint=eastwest;rounded=0;shadow=0;html=0;" vertex="1" parent="BNFZ0rqhJsxP_BBbkfFe-64">
          <mxGeometry y="80" width="160" height="27" as="geometry" />
        </mxCell>
        <mxCell id="BNFZ0rqhJsxP_BBbkfFe-68" value="+ Delete ()" style="text;align=left;verticalAlign=top;spacingLeft=4;spacingRight=4;overflow=hidden;rotatable=0;points=[[0,0.5],[1,0.5]];portConstraint=eastwest;rounded=0;shadow=0;html=0;" vertex="1" parent="BNFZ0rqhJsxP_BBbkfFe-64">
          <mxGeometry y="107" width="160" height="27" as="geometry" />
        </mxCell>
        <mxCell id="BNFZ0rqhJsxP_BBbkfFe-69" value="+ GetAll ()" style="text;align=left;verticalAlign=top;spacingLeft=4;spacingRight=4;overflow=hidden;rotatable=0;points=[[0,0.5],[1,0.5]];portConstraint=eastwest;rounded=0;shadow=0;html=0;" vertex="1" parent="BNFZ0rqhJsxP_BBbkfFe-64">
          <mxGeometry y="134" width="160" height="27" as="geometry" />
        </mxCell>
        <mxCell id="BNFZ0rqhJsxP_BBbkfFe-70" value="+ GetAnimalAll()" style="text;align=left;verticalAlign=top;spacingLeft=4;spacingRight=4;overflow=hidden;rotatable=0;points=[[0,0.5],[1,0.5]];portConstraint=eastwest;rounded=0;shadow=0;html=0;" vertex="1" parent="BNFZ0rqhJsxP_BBbkfFe-64">
          <mxGeometry y="161" width="160" height="27" as="geometry" />
        </mxCell>
        <mxCell id="BNFZ0rqhJsxP_BBbkfFe-71" value="DiseaseService" style="swimlane;fontStyle=2;align=center;verticalAlign=top;childLayout=stackLayout;horizontal=1;startSize=26;horizontalStack=0;resizeParent=1;resizeLast=0;collapsible=1;marginBottom=0;rounded=0;shadow=0;strokeWidth=1;" vertex="1" parent="1">
          <mxGeometry x="1130" y="950" width="160" height="188" as="geometry">
            <mxRectangle x="220" y="120" width="160" height="26" as="alternateBounds" />
          </mxGeometry>
        </mxCell>
        <mxCell id="BNFZ0rqhJsxP_BBbkfFe-72" value="+ GetById()" style="text;align=left;verticalAlign=top;spacingLeft=4;spacingRight=4;overflow=hidden;rotatable=0;points=[[0,0.5],[1,0.5]];portConstraint=eastwest;rounded=0;shadow=0;html=0;" vertex="1" parent="BNFZ0rqhJsxP_BBbkfFe-71">
          <mxGeometry y="26" width="160" height="27" as="geometry" />
        </mxCell>
        <mxCell id="BNFZ0rqhJsxP_BBbkfFe-73" value="+ GetAll ()" style="text;align=left;verticalAlign=top;spacingLeft=4;spacingRight=4;overflow=hidden;rotatable=0;points=[[0,0.5],[1,0.5]];portConstraint=eastwest;rounded=0;shadow=0;html=0;" vertex="1" parent="BNFZ0rqhJsxP_BBbkfFe-71">
          <mxGeometry y="53" width="160" height="27" as="geometry" />
        </mxCell>
        <mxCell id="BNFZ0rqhJsxP_BBbkfFe-74" value="+ Create ()" style="text;align=left;verticalAlign=top;spacingLeft=4;spacingRight=4;overflow=hidden;rotatable=0;points=[[0,0.5],[1,0.5]];portConstraint=eastwest;rounded=0;shadow=0;html=0;" vertex="1" parent="BNFZ0rqhJsxP_BBbkfFe-71">
          <mxGeometry y="80" width="160" height="27" as="geometry" />
        </mxCell>
        <mxCell id="BNFZ0rqhJsxP_BBbkfFe-75" value="+ Delete ()" style="text;align=left;verticalAlign=top;spacingLeft=4;spacingRight=4;overflow=hidden;rotatable=0;points=[[0,0.5],[1,0.5]];portConstraint=eastwest;rounded=0;shadow=0;html=0;" vertex="1" parent="BNFZ0rqhJsxP_BBbkfFe-71">
          <mxGeometry y="107" width="160" height="27" as="geometry" />
        </mxCell>
        <mxCell id="BNFZ0rqhJsxP_BBbkfFe-76" value="+ GetAnimalAll ()" style="text;align=left;verticalAlign=top;spacingLeft=4;spacingRight=4;overflow=hidden;rotatable=0;points=[[0,0.5],[1,0.5]];portConstraint=eastwest;rounded=0;shadow=0;html=0;" vertex="1" parent="BNFZ0rqhJsxP_BBbkfFe-71">
          <mxGeometry y="134" width="160" height="27" as="geometry" />
        </mxCell>
        <mxCell id="BNFZ0rqhJsxP_BBbkfFe-77" value="+ Update()" style="text;align=left;verticalAlign=top;spacingLeft=4;spacingRight=4;overflow=hidden;rotatable=0;points=[[0,0.5],[1,0.5]];portConstraint=eastwest;rounded=0;shadow=0;html=0;" vertex="1" parent="BNFZ0rqhJsxP_BBbkfFe-71">
          <mxGeometry y="161" width="160" height="27" as="geometry" />
        </mxCell>
        <mxCell id="BNFZ0rqhJsxP_BBbkfFe-78" value="IDiseaseRepo" style="swimlane;fontStyle=2;align=center;verticalAlign=top;childLayout=stackLayout;horizontal=1;startSize=26;horizontalStack=0;resizeParent=1;resizeLast=0;collapsible=1;marginBottom=0;rounded=0;shadow=0;strokeWidth=1;" vertex="1" parent="1">
          <mxGeometry x="1130" y="1228.5" width="160" height="188" as="geometry">
            <mxRectangle x="220" y="120" width="160" height="26" as="alternateBounds" />
          </mxGeometry>
        </mxCell>
        <mxCell id="BNFZ0rqhJsxP_BBbkfFe-79" value="+ GetById ()" style="text;align=left;verticalAlign=top;spacingLeft=4;spacingRight=4;overflow=hidden;rotatable=0;points=[[0,0.5],[1,0.5]];portConstraint=eastwest;rounded=0;shadow=0;html=0;" vertex="1" parent="BNFZ0rqhJsxP_BBbkfFe-78">
          <mxGeometry y="26" width="160" height="27" as="geometry" />
        </mxCell>
        <mxCell id="BNFZ0rqhJsxP_BBbkfFe-80" value="+ Create ()" style="text;align=left;verticalAlign=top;spacingLeft=4;spacingRight=4;overflow=hidden;rotatable=0;points=[[0,0.5],[1,0.5]];portConstraint=eastwest;rounded=0;shadow=0;html=0;" vertex="1" parent="BNFZ0rqhJsxP_BBbkfFe-78">
          <mxGeometry y="53" width="160" height="27" as="geometry" />
        </mxCell>
        <mxCell id="BNFZ0rqhJsxP_BBbkfFe-81" value="+ Update ()" style="text;align=left;verticalAlign=top;spacingLeft=4;spacingRight=4;overflow=hidden;rotatable=0;points=[[0,0.5],[1,0.5]];portConstraint=eastwest;rounded=0;shadow=0;html=0;" vertex="1" parent="BNFZ0rqhJsxP_BBbkfFe-78">
          <mxGeometry y="80" width="160" height="27" as="geometry" />
        </mxCell>
        <mxCell id="BNFZ0rqhJsxP_BBbkfFe-82" value="+ Delete ()" style="text;align=left;verticalAlign=top;spacingLeft=4;spacingRight=4;overflow=hidden;rotatable=0;points=[[0,0.5],[1,0.5]];portConstraint=eastwest;rounded=0;shadow=0;html=0;" vertex="1" parent="BNFZ0rqhJsxP_BBbkfFe-78">
          <mxGeometry y="107" width="160" height="27" as="geometry" />
        </mxCell>
        <mxCell id="BNFZ0rqhJsxP_BBbkfFe-83" value="+ GetAll ()" style="text;align=left;verticalAlign=top;spacingLeft=4;spacingRight=4;overflow=hidden;rotatable=0;points=[[0,0.5],[1,0.5]];portConstraint=eastwest;rounded=0;shadow=0;html=0;" vertex="1" parent="BNFZ0rqhJsxP_BBbkfFe-78">
          <mxGeometry y="134" width="160" height="27" as="geometry" />
        </mxCell>
        <mxCell id="BNFZ0rqhJsxP_BBbkfFe-84" value="+ GetAnimalAll ()" style="text;align=left;verticalAlign=top;spacingLeft=4;spacingRight=4;overflow=hidden;rotatable=0;points=[[0,0.5],[1,0.5]];portConstraint=eastwest;rounded=0;shadow=0;html=0;" vertex="1" parent="BNFZ0rqhJsxP_BBbkfFe-78">
          <mxGeometry y="161" width="160" height="27" as="geometry" />
        </mxCell>
        <mxCell id="BNFZ0rqhJsxP_BBbkfFe-85" value="" style="endArrow=diamondThin;endFill=1;endSize=24;html=1;rounded=0;exitX=0.5;exitY=0;exitDx=0;exitDy=0;entryX=0.489;entryY=0.995;entryDx=0;entryDy=0;entryPerimeter=0;edgeStyle=orthogonalEdgeStyle;" edge="1" parent="1" source="BNFZ0rqhJsxP_BBbkfFe-78" target="BNFZ0rqhJsxP_BBbkfFe-77">
          <mxGeometry width="160" relative="1" as="geometry">
            <mxPoint x="1410" y="1288.5" as="sourcePoint" />
            <mxPoint x="1438" y="1040.5" as="targetPoint" />
            <Array as="points">
              <mxPoint x="1208" y="1228.5" />
            </Array>
          </mxGeometry>
        </mxCell>
        <mxCell id="BNFZ0rqhJsxP_BBbkfFe-86" value="" style="endArrow=block;dashed=1;endFill=0;endSize=12;html=1;entryX=0.558;entryY=1.151;entryDx=0;entryDy=0;exitX=0.5;exitY=0;exitDx=0;exitDy=0;entryPerimeter=0;" edge="1" parent="1" source="BNFZ0rqhJsxP_BBbkfFe-64">
          <mxGeometry width="160" relative="1" as="geometry">
            <mxPoint x="1210" y="1585" as="sourcePoint" />
            <mxPoint x="1209.2799999999997" y="1417.5769999999998" as="targetPoint" />
          </mxGeometry>
        </mxCell>
        <mxCell id="BNFZ0rqhJsxP_BBbkfFe-87" value="" style="endArrow=diamondThin;endFill=0;endSize=24;html=1;rounded=0;exitX=0.5;exitY=0;exitDx=0;exitDy=0;edgeStyle=orthogonalEdgeStyle;" edge="1" parent="1" source="BNFZ0rqhJsxP_BBbkfFe-71">
          <mxGeometry width="160" relative="1" as="geometry">
            <mxPoint x="980" y="962" as="sourcePoint" />
            <mxPoint x="610" y="720" as="targetPoint" />
          </mxGeometry>
        </mxCell>
        <mxCell id="BNFZ0rqhJsxP_BBbkfFe-89" value="" style="endArrow=open;endSize=12;dashed=1;html=1;rounded=0;edgeStyle=orthogonalEdgeStyle;entryX=0;entryY=0.5;entryDx=0;entryDy=0;exitX=0.75;exitY=0;exitDx=0;exitDy=0;" edge="1" parent="1" source="BNFZ0rqhJsxP_BBbkfFe-64" target="C16Kg4b49XEJpj3eTu0I-64">
          <mxGeometry width="160" relative="1" as="geometry">
            <mxPoint x="1030" y="1600" as="sourcePoint" />
            <mxPoint x="1991" y="1194" as="targetPoint" />
            <Array as="points">
              <mxPoint x="1250" y="1490" />
              <mxPoint x="1330" y="1490" />
              <mxPoint x="1330" y="999" />
            </Array>
          </mxGeometry>
        </mxCell>
      </root>
    </mxGraphModel>
  </diagram>
</mxfile>
